<?xml version="1.0" encoding="utf-8"?>
<!-- Generator: Adobe Illustrator 20.1.0, SVG Export Plug-In . SVG Version: 6.00 Build 0)  -->
<svg version="1.1" id="Layer_1" xmlns="http://www.w3.org/2000/svg" xmlns:xlink="http://www.w3.org/1999/xlink" x="0px" y="0px"
	 viewBox="0 0 566.9 566.9" style="enable-background:new 0 0 566.9 566.9;" xml:space="preserve">
<style type="text/css">
	.st0{display:none;}
	.st1{display:inline;fill:url(#SVGID_1_);stroke:#FFFFFF;stroke-width:3;stroke-miterlimit:10;}
	.st2{display:inline;fill:#2377BA;}
	.st3{display:inline;}
	.st4{fill:#E6342E;stroke:#FFFFFF;stroke-width:3;stroke-miterlimit:10;}
	.st5{fill:#FFFFFF;}
	.st6{fill:#D3E2E1;}
	.st7{fill:#E56A22;}
	.st8{fill:#566E36;}
	.st9{fill:#475815;}
	.st10{fill:#484F51;}
	.st11{fill:#292535;}
	.st12{fill:#353535;}
</style>
<g id="Livello_1" class="st0">
	
		<linearGradient id="SVGID_1_" gradientUnits="userSpaceOnUse" x1="150.1018" y1="-43.004" x2="317.1133" y2="-188.7985" gradientTransform="matrix(2.2146 0 0 2.2146 -188.263 500.3057)">
		<stop  offset="0" style="stop-color:#2377BA"/>
		<stop  offset="1" style="stop-color:#32ABDF"/>
	</linearGradient>
	<path class="st1" d="M499.6,528.8H67.3c-16.2,0-29.2-13.1-29.2-29.2V67.3c0-16.2,13.1-29.2,29.2-29.2h432.3
		c16.2,0,29.2,13.1,29.2,29.2v432.3C528.8,515.8,515.8,528.8,499.6,528.8z"/>
	<path class="st2" d="M377.4,102.1c64.2,0,116,52,116,116c0,106.1-209.9,246.7-209.9,246.7s-210-135.5-210-246.7
		c0-79.7,52-116,116-116c38.5,0,72.6,19,93.9,47.8C304.5,120.9,338.6,102.1,377.4,102.1z"/>
	<g class="st3">
		<path class="st4" d="M283.5,174.1c-60.2,0-109.4,48.9-109.4,109.4c0,60.2,48.9,109.4,109.4,109.4S392.9,344,392.9,283.5
			S343.7,174.1,283.5,174.1z"/>
		<path class="st5" d="M329.1,293l-51.4,37.2c-2,1.6-4.4,2.2-6.9,2.2c-1.8,0-3.5-0.4-5.3-1.3c-4-2-6.4-6-6.4-10.4v-74.4
			c0-4.4,2.4-8.4,6.4-10.4s8.6-1.6,12.2,0.9l51.4,37.2c3.1,2.2,4.9,5.8,4.9,9.5C334,287.2,332.2,290.8,329.1,293z"/>
	</g>
</g>
<g id="Livello_2">
	<g>
		<ellipse class="st6" cx="245.6" cy="433.8" rx="131.4" ry="41.2"/>
		<g>
			<path class="st7" d="M308.8,167.2c5.3-0.8,10.5-2,15.8-2c-3.8,9.7-7.5,19.4-11.4,28.9c-0.8,2-1,4.2-0.8,6.3c0.4,3,1.7,4.5,5.3,4
				c7.9-1.2,15.8-2.8,23.5-5c16.4-4.5,32.4-9.5,47-18.7c0.4,0,0.6,0,1,0c14,6.3,26.4,15,37.1,25.7c15.6,15.6,27.6,33.6,33.6,55.1
				c4,14.2,4,28.7,3.5,43.6c-0.8,20.7-5.9,40.1-13,59.1c-3.5,9.2-6.7,18.2-12.2,26.4c-8.5,12.7-18.4,24.4-29.9,34.4
				c-8.9,7.7-19,13.7-29.4,19c-15.6,7.9-32.4,11.2-50.3,10.7c-17.4-0.4-34.4-1.8-51.4-4.9c-15.4-2.8-30.9-5-45.8-10.9
				c-8.9-3.5-17.2-8.3-25.4-13.2c-9.7-5.7-18.7-12.7-26.4-20.9c-18.2-18.9-32.4-40.1-35.9-66.8c-1.8-13.5-0.6-27.1,2-40.5
				c4.2-22.5,14.2-42.6,27.7-61c8.3-11.5,19.2-20.2,30.8-28.4c11.4-7.9,23.9-12.5,36.9-16.8c17-5.5,33.8-11.5,50-18.9
				c2.8-1.2,5.9-2,8.7-3.2c0.2,0.2,0.4,0.2,0.4,0.2c0.6,4,0.8,7.9,0.8,12c0.2,7.7,1,15.2,1.5,22.9c0.2,1.8,0.4,3.8,3,3.8
				c2,0,2.7-1.5,2.7-3c0.2-12.4,1.7-24.9-0.4-37.3C308.5,167.9,308.5,167.5,308.8,167.2z"/>
			<path class="st8" d="M389.4,181.1c-0.4,0-0.6,0-1,0c-0.8-1.2-2-1.5-3-1.8c-8.2-3-16.2-5.9-24.4-8.9c-11.5-4.2-23.5-5.9-35.6-5.5
				c9.5-23.5,19-46.8,33.2-68c7.7-11.5,16-22.5,25.5-32.6c10.2-10.9,20.7-21.2,33-29.6c14.2-9.5,28.6-18,43.9-25.4
				c7.5-3.5,15-6.5,22.9-8.5c6.7-1.8,8.5,0,9.7,6.9c2.2,12.7,2.8,25.4,2.7,38.3c-0.2,13-4,25.1-9.2,36.9
				c-10.3,24.9-27.9,44.3-47.6,62.3C424.4,159.4,407.8,171.4,389.4,181.1z"/>
			<path class="st8" d="M299.3,159.2c-1.7,6.5-2.8,7-9.5,7.9c-12.2,1.2-23.5-2-35.1-4.5c-10.5-2.2-21.1-4.9-31.6-7.3
				c-16.2-3.7-32.2-8.3-47.8-14c-18.2-6.7-35.6-14.6-52.5-24.1c-13.7-7.7-26.1-17.6-37.9-27.9c-3.7-3.2-7-6.5-11.4-8.5
				c-1.7-0.8-3.2-1.7-3-3.7c0.2-2.5,2-3.5,4-3.8c7.3-1,14.6-2.7,21.9-2.2c14,0.6,28.2,1.2,41.9,3.7c13.5,2.2,26.9,5,40.1,9.2
				c9.9,3,19.7,6.5,29.4,9.9c18,6.5,35.4,14.2,51.6,24.5c8.9,5.7,18,11.4,26.1,18c6,4.9,10.9,10.7,13.5,18.2
				C299.3,156.2,299.3,157.7,299.3,159.2z"/>
			<path class="st9" d="M325.4,164.9c12.2-0.4,24.1,1.2,35.6,5.5c8.2,3,16.2,5.7,24.4,8.9c1.2,0.4,2.5,0.6,3,1.8
				c-14.6,8.9-30.6,14.2-47,18.7c-7.7,2-15.4,3.8-23.5,5c-3.7,0.6-4.9-1-5.3-4c-0.2-2-0.2-4.2,0.8-6.3c3.8-9.7,7.5-19.4,11.4-28.9
				C325,165,325.2,164.9,325.4,164.9z"/>
			<path class="st10" d="M299.3,159.2c0-1.5-0.2-3-0.2-4.5c0.2-6.7-0.6-13.5-1.5-20.2c-0.4-3.5-3.2-6.3-3.7-9.9
				c-0.2-2.8,0-5,3.2-5.7c3.5-0.6,4.9,1.2,5,4.5c0.8,13.4,4.9,26.4,6,39.7c0.2,1.5,0.2,2.8,0.4,4c-0.2,0.4-0.4,0.6-0.6,1
				c-2.7-0.2-5.3,0.4-7.7,1.7c-0.2,0-0.4,0-0.4-0.2C299.8,166.2,299.7,162.8,299.3,159.2z"/>
			<path class="st11" d="M300.7,169.9c2.5-1.2,4.9-1.8,7.7-1.7c1.8,12.4,0.6,24.9,0.4,37.3c0,1.8-0.6,3-2.7,3c-2.7,0-2.8-2-3-3.8
				c-0.6-7.7-1.2-15.2-1.5-22.9C301.3,177.9,301.3,173.7,300.7,169.9z"/>
		</g>
		<g>
			<g>
				<circle class="st12" cx="283.5" cy="503.3" r="20.8"/>
			</g>
			<g>
				<circle class="st12" cx="341.6" cy="503.3" r="20.8"/>
				<circle class="st5" cx="341.6" cy="503.3" r="15.5"/>
			</g>
			<g>
				<circle class="st12" cx="225.4" cy="503.3" r="20.8"/>
				<circle class="st5" cx="225.4" cy="503.3" r="15.5"/>
			</g>
		</g>
		<g>
			<path class="st5" d="M381.1,359.6c5.7,4.1-46.3-47.8-48-48c6.1-7.5,8.6-16.3,6.3-23.8c2.3-30.5-21-53.7-47.9-47.9
				c-30.4-5.8-53.6,17.4-47.9,47.9c-5.7,26.8,17.5,50,47.9,47.9c6.2,2.1,13.7,0.4,20.5-4.6c0,1.8,52.8,54.6,48.8,48.8
				C364.9,385.7,386.8,363.8,381.1,359.6z M254.3,286.9c-3-21.8,14.6-39.5,36.4-36.4c21.8-3,39.5,14.6,36.4,36.4
				c3,21.8-14.6,39.5-36.4,36.4C268.9,326.4,251.2,308.7,254.3,286.9z"/>
		</g>
	</g>
</g>
</svg>
