<?xml version="1.0" encoding="utf-8"?>
<!-- Generator: Adobe Illustrator 18.1.1, SVG Export Plug-In . SVG Version: 6.00 Build 0)  -->
<svg version="1.1" id="Livello_1" xmlns="http://www.w3.org/2000/svg" xmlns:xlink="http://www.w3.org/1999/xlink" x="0px" y="0px"
	 viewBox="0 0 250.4 237.1" enable-background="new 0 0 250.4 237.1" xml:space="preserve">
<ellipse fill="#D3E2E1" cx="107.1" cy="192" rx="64.3" ry="20.1"/>
<g>
	<path fill="#E56A22" d="M136.7,73.8c2.3-0.4,4.6-0.9,6.9-0.9c-1.7,4.3-3.3,8.5-5,12.7c-0.4,0.9-0.4,1.9-0.4,2.8
		c0.2,1.3,0.7,2,2.3,1.8c3.5-0.5,6.9-1.2,10.3-2.2c7.2-2,14.2-4.2,20.6-8.2c0.2,0,0.3,0,0.4,0c6.1,2.8,11.5,6.6,16.2,11.3
		c6.8,6.8,12.1,14.7,14.7,24.1c1.8,6.2,1.8,12.6,1.5,19.1c-0.4,9-2.6,17.6-5.7,25.9c-1.5,4-2.9,8-5.3,11.5
		c-3.7,5.6-8.1,10.6-13.1,15.1c-3.9,3.4-8.3,6-12.9,8.3c-6.8,3.5-14.2,4.9-22,4.7c-7.6-0.2-15.1-0.8-22.5-2.1
		c-6.7-1.2-13.6-2.2-20.1-4.8c-3.9-1.5-7.5-3.6-11.1-5.8c-4.3-2.5-8.2-5.6-11.5-9.1c-8-8.3-14.2-17.6-15.7-29.3
		c-0.8-5.9-0.3-11.9,0.9-17.7c1.9-9.8,6.2-18.6,12.2-26.7c3.6-5.1,8.4-8.9,13.5-12.4c5-3.5,10.5-5.5,16.1-7.4
		c7.5-2.4,14.8-5.1,21.9-8.3c1.2-0.5,2.6-0.9,3.8-1.4c0.1,0.1,0.2,0.1,0.2,0.1c0.3,1.8,0.4,3.5,0.4,5.2c0.1,3.4,0.4,6.7,0.6,10
		c0.1,0.8,0.2,1.7,1.3,1.7c0.9,0,1.2-0.6,1.2-1.3c0.1-5.4,0.7-10.9-0.2-16.3C136.6,74.1,136.6,73.9,136.7,73.8z"/>
	<path fill="#576F36" d="M172,79.9c-0.2,0-0.3,0-0.4,0c-0.4-0.5-0.9-0.6-1.3-0.8c-3.5-1.3-7.1-2.6-10.6-3.9
		c-5.1-1.9-10.3-2.6-15.6-2.4c4.2-10.3,8.3-20.5,14.6-29.8c3.4-5.1,7-9.8,11.2-14.3c4.4-4.8,9-9.3,14.5-13
		c6.2-4.2,12.5-7.9,19.3-11.1c3.3-1.5,6.6-2.8,10-3.7c2.9-0.8,3.7,0,4.3,3c1,5.6,1.2,11.1,1.2,16.8c-0.1,5.7-1.8,11-4,16.1
		c-4.5,10.9-12.2,19.4-20.8,27.3C187.4,70.4,180.1,75.6,172,79.9z"/>
	<path fill="#576F36" d="M132.6,70.3c-0.7,2.8-1.2,3.1-4.2,3.5c-5.3,0.5-10.3-0.9-15.3-2c-4.6-1-9.2-2.1-13.8-3.2
		C92.1,67,85.1,65,78.3,62.5c-8-2.9-15.6-6.4-23-10.6c-6-3.4-11.4-7.7-16.6-12.2c-1.6-1.4-3.1-2.8-5-3.7c-0.7-0.4-1.4-0.7-1.3-1.6
		c0.1-1.1,0.9-1.5,1.8-1.7c3.2-0.4,6.4-1.2,9.6-1c6.1,0.3,12.3,0.5,18.4,1.6c5.9,1,11.8,2.2,17.6,4c4.3,1.3,8.6,2.8,12.9,4.3
		c7.9,2.8,15.5,6.2,22.6,10.7c3.9,2.5,7.9,5,11.4,7.9c2.7,2.1,4.8,4.7,5.9,8C132.6,69,132.6,69.7,132.6,70.3z"/>
	<path fill="#485922" d="M144,72.8c5.3-0.2,10.6,0.5,15.6,2.4c3.5,1.3,7.1,2.5,10.6,3.9c0.5,0.2,1.1,0.3,1.3,0.8
		c-6.4,3.9-13.4,6.2-20.6,8.2c-3.4,0.9-6.7,1.7-10.3,2.2c-1.6,0.3-2.1-0.4-2.3-1.8c-0.1-0.9-0.1-1.9,0.4-2.8c1.7-4.3,3.3-8.5,5-12.7
		C143.8,72.9,143.9,72.8,144,72.8z"/>
	<path fill="#495052" d="M132.6,70.3c0-0.6-0.1-1.3-0.1-2c0.1-2.9-0.3-5.9-0.6-8.9c-0.2-1.5-1.4-2.8-1.6-4.3c-0.1-1.2,0-2.2,1.4-2.5
		c1.5-0.3,2.1,0.5,2.2,2c0.4,5.9,2.1,11.5,2.7,17.4c0.1,0.6,0.1,1.2,0.2,1.8c-0.1,0.2-0.2,0.3-0.3,0.4c-1.2-0.1-2.3,0.2-3.4,0.7
		c-0.1,0-0.2,0-0.2-0.1C132.8,73.4,132.7,71.9,132.6,70.3z"/>
	<path fill="#2A2535" d="M133.2,75c1.1-0.5,2.1-0.8,3.4-0.7c0.8,5.4,0.3,10.9,0.2,16.3c0,0.8-0.3,1.3-1.2,1.3
		c-1.2,0-1.2-0.9-1.3-1.7c-0.3-3.4-0.5-6.7-0.6-10C133.5,78.5,133.5,76.7,133.2,75z"/>
</g>
<g>
	<g>
		<circle fill="#353535" cx="125.2" cy="222.3" r="10.2"/>
	</g>
	<g>
		<circle fill="#353535" cx="153.7" cy="222.3" r="10.2"/>
		<circle fill="#FFFFFF" cx="153.7" cy="222.3" r="7.6"/>
	</g>
	<g>
		<circle fill="#353535" cx="96.8" cy="222.3" r="10.2"/>
		<circle fill="#FFFFFF" cx="96.8" cy="222.3" r="7.6"/>
	</g>
</g>
<g>
	<path fill="#FFFFFF" d="M166,161.1c2.8,2-22.6-23.4-23.5-23.5c3-3.6,4.2-8,3.1-11.7c1.1-14.9-10.3-26.3-23.4-23.4
		c-14.9-2.9-26.2,8.5-23.4,23.4c-2.8,13.1,8.6,24.5,23.4,23.4c3,1.1,6.7,0.2,10-2.3c0,0.9,25.8,26.7,23.9,23.9
		C158.1,173.9,168.8,163.1,166,161.1z M104,125.5c-1.5-10.7,7.2-19.3,17.8-17.8c10.7-1.5,19.3,7.2,17.8,17.8
		c1.5,10.7-7.2,19.3-17.8,17.8C111.1,144.8,102.5,136.2,104,125.5z"/>
</g>
</svg>
